<mxfile host="app.diagrams.net" modified="2021-07-20T21:13:17.731Z" agent="5.0 (Macintosh; Intel Mac OS X 10_15_7) AppleWebKit/537.36 (KHTML, like Gecko) Chrome/91.0.4472.114 Safari/537.36" etag="25YhRlTLTzqsHXoh6hcG" version="14.9.0" type="github">
  <diagram id="Trt7S-ZLCcCfkxZb_0Id" name="Page-1">
    <mxGraphModel dx="946" dy="472" grid="1" gridSize="10" guides="1" tooltips="1" connect="1" arrows="1" fold="1" page="1" pageScale="1" pageWidth="850" pageHeight="1100" math="0" shadow="0">
      <root>
        <mxCell id="0" />
        <mxCell id="1" parent="0" />
        <mxCell id="eJyzmydZsHJCqdybcONO-7" value="read/write" style="edgeStyle=orthogonalEdgeStyle;rounded=0;orthogonalLoop=1;jettySize=auto;html=1;startArrow=classic;startFill=1;" parent="1" source="eJyzmydZsHJCqdybcONO-1" target="eJyzmydZsHJCqdybcONO-5" edge="1">
          <mxGeometry relative="1" as="geometry">
            <Array as="points">
              <mxPoint x="380" y="160" />
              <mxPoint x="380" y="160" />
            </Array>
          </mxGeometry>
        </mxCell>
        <mxCell id="eJyzmydZsHJCqdybcONO-1" value="" style="outlineConnect=0;dashed=0;verticalLabelPosition=bottom;verticalAlign=top;align=center;html=1;shape=mxgraph.aws3.ec2;fillColor=#F58534;gradientColor=none;" parent="1" vertex="1">
          <mxGeometry x="331.75" y="130" width="76.5" height="93" as="geometry" />
        </mxCell>
        <mxCell id="eJyzmydZsHJCqdybcONO-4" value="EC2 instance&lt;br&gt;running with docker registry" style="text;html=1;align=center;verticalAlign=middle;resizable=0;points=[];autosize=1;strokeColor=none;" parent="1" vertex="1">
          <mxGeometry x="290" y="223" width="160" height="30" as="geometry" />
        </mxCell>
        <mxCell id="eJyzmydZsHJCqdybcONO-5" value="" style="pointerEvents=1;shadow=0;dashed=0;html=1;strokeColor=none;fillColor=#DF8C42;labelPosition=center;verticalLabelPosition=bottom;verticalAlign=top;align=center;outlineConnect=0;shape=mxgraph.veeam2.aws_s3;" parent="1" vertex="1">
          <mxGeometry x="520" y="130" width="80" height="80" as="geometry" />
        </mxCell>
        <mxCell id="eJyzmydZsHJCqdybcONO-6" value="S3Bucket for storage&lt;br&gt;&amp;nbsp;of docker images" style="text;html=1;align=center;verticalAlign=middle;resizable=0;points=[];autosize=1;strokeColor=none;" parent="1" vertex="1">
          <mxGeometry x="500" y="223" width="130" height="30" as="geometry" />
        </mxCell>
        <mxCell id="eJyzmydZsHJCqdybcONO-12" style="edgeStyle=orthogonalEdgeStyle;rounded=0;orthogonalLoop=1;jettySize=auto;html=1;startArrow=classic;startFill=1;" parent="1" source="eJyzmydZsHJCqdybcONO-10" target="eJyzmydZsHJCqdybcONO-1" edge="1">
          <mxGeometry relative="1" as="geometry">
            <mxPoint x="270" y="138" as="targetPoint" />
            <Array as="points">
              <mxPoint x="190" y="138" />
              <mxPoint x="190" y="170" />
            </Array>
          </mxGeometry>
        </mxCell>
        <mxCell id="eJyzmydZsHJCqdybcONO-16" value="pull/push" style="edgeLabel;html=1;align=center;verticalAlign=middle;resizable=0;points=[];" parent="eJyzmydZsHJCqdybcONO-12" vertex="1" connectable="0">
          <mxGeometry x="0.4" y="3" relative="1" as="geometry">
            <mxPoint as="offset" />
          </mxGeometry>
        </mxCell>
        <mxCell id="eJyzmydZsHJCqdybcONO-10" value="Dev-1" style="outlineConnect=0;fontColor=#232F3E;gradientColor=none;strokeColor=#232F3E;fillColor=#ffffff;dashed=0;verticalLabelPosition=bottom;verticalAlign=top;align=center;html=1;fontSize=12;fontStyle=0;aspect=fixed;shape=mxgraph.aws4.resourceIcon;resIcon=mxgraph.aws4.client;" parent="1" vertex="1">
          <mxGeometry x="80" y="112" width="52" height="52" as="geometry" />
        </mxCell>
        <mxCell id="eJyzmydZsHJCqdybcONO-15" style="edgeStyle=orthogonalEdgeStyle;rounded=0;orthogonalLoop=1;jettySize=auto;html=1;startArrow=classic;startFill=1;endArrow=none;endFill=0;" parent="1" source="eJyzmydZsHJCqdybcONO-11" edge="1">
          <mxGeometry relative="1" as="geometry">
            <mxPoint x="190" y="170" as="targetPoint" />
          </mxGeometry>
        </mxCell>
        <mxCell id="eJyzmydZsHJCqdybcONO-11" value="Dev-2" style="outlineConnect=0;fontColor=#232F3E;gradientColor=none;strokeColor=#232F3E;fillColor=#ffffff;dashed=0;verticalLabelPosition=bottom;verticalAlign=top;align=center;html=1;fontSize=12;fontStyle=0;aspect=fixed;shape=mxgraph.aws4.resourceIcon;resIcon=mxgraph.aws4.client;" parent="1" vertex="1">
          <mxGeometry x="80" y="194" width="52" height="52" as="geometry" />
        </mxCell>
      </root>
    </mxGraphModel>
  </diagram>
</mxfile>
